<mxfile host="65bd71144e">
    <diagram id="FZSac_mE8ngayOiKKVst" name="Page-1">
        <mxGraphModel dx="1832" dy="835" grid="1" gridSize="10" guides="1" tooltips="1" connect="1" arrows="1" fold="1" page="1" pageScale="1" pageWidth="850" pageHeight="1100" math="0" shadow="0">
            <root>
                <mxCell id="0"/>
                <mxCell id="1" parent="0"/>
                <mxCell id="3" value="Users" style="whiteSpace=wrap;html=1;align=center;" parent="1" vertex="1">
                    <mxGeometry x="290" y="200" width="100" height="40" as="geometry"/>
                </mxCell>
                <mxCell id="6" value="Activities" style="whiteSpace=wrap;html=1;align=center;" parent="1" vertex="1">
                    <mxGeometry x="280" y="490" width="100" height="40" as="geometry"/>
                </mxCell>
                <mxCell id="10" value="Password" style="ellipse;whiteSpace=wrap;html=1;align=center;" parent="1" vertex="1">
                    <mxGeometry x="210" y="90" width="100" height="40" as="geometry"/>
                </mxCell>
                <mxCell id="11" value="Email" style="ellipse;whiteSpace=wrap;html=1;align=center;" parent="1" vertex="1">
                    <mxGeometry x="330" y="90" width="100" height="40" as="geometry"/>
                </mxCell>
                <mxCell id="14" value="Name" style="ellipse;whiteSpace=wrap;html=1;align=center;" parent="1" vertex="1">
                    <mxGeometry x="410" y="130" width="100" height="40" as="geometry"/>
                </mxCell>
                <mxCell id="15" value="UserID" style="ellipse;whiteSpace=wrap;html=1;align=center;fontStyle=4;" parent="1" vertex="1">
                    <mxGeometry x="160" y="150" width="100" height="40" as="geometry"/>
                </mxCell>
                <mxCell id="16" value="" style="endArrow=none;html=1;rounded=0;exitX=0.975;exitY=0.765;exitDx=0;exitDy=0;exitPerimeter=0;entryX=0;entryY=0.5;entryDx=0;entryDy=0;" parent="1" source="15" target="3" edge="1">
                    <mxGeometry relative="1" as="geometry">
                        <mxPoint x="570" y="380" as="sourcePoint"/>
                        <mxPoint x="280" y="170" as="targetPoint"/>
                    </mxGeometry>
                </mxCell>
                <mxCell id="17" value="" style="endArrow=none;html=1;rounded=0;entryX=0.25;entryY=0;entryDx=0;entryDy=0;" parent="1" source="10" target="3" edge="1">
                    <mxGeometry relative="1" as="geometry">
                        <mxPoint x="580" y="390" as="sourcePoint"/>
                        <mxPoint x="740" y="390" as="targetPoint"/>
                    </mxGeometry>
                </mxCell>
                <mxCell id="18" value="" style="endArrow=none;html=1;rounded=0;exitX=0.5;exitY=1;exitDx=0;exitDy=0;entryX=0.75;entryY=0;entryDx=0;entryDy=0;" parent="1" source="11" target="3" edge="1">
                    <mxGeometry relative="1" as="geometry">
                        <mxPoint x="590" y="400" as="sourcePoint"/>
                        <mxPoint x="750" y="400" as="targetPoint"/>
                    </mxGeometry>
                </mxCell>
                <mxCell id="20" value="" style="endArrow=none;html=1;rounded=0;entryX=1;entryY=0.25;entryDx=0;entryDy=0;" parent="1" source="14" target="3" edge="1">
                    <mxGeometry relative="1" as="geometry">
                        <mxPoint x="610" y="420" as="sourcePoint"/>
                        <mxPoint x="770" y="420" as="targetPoint"/>
                    </mxGeometry>
                </mxCell>
                <mxCell id="24" value="Date" style="ellipse;whiteSpace=wrap;html=1;align=center;" parent="1" vertex="1">
                    <mxGeometry x="390" y="420" width="100" height="40" as="geometry"/>
                </mxCell>
                <mxCell id="25" value="ActivityName" style="ellipse;whiteSpace=wrap;html=1;align=center;" parent="1" vertex="1">
                    <mxGeometry x="230" y="570" width="100" height="40" as="geometry"/>
                </mxCell>
                <mxCell id="27" value="ActivityID" style="ellipse;whiteSpace=wrap;html=1;align=center;fontStyle=4;" parent="1" vertex="1">
                    <mxGeometry x="340" y="560" width="100" height="40" as="geometry"/>
                </mxCell>
                <mxCell id="29" value="" style="endArrow=none;html=1;rounded=0;exitX=0.33;exitY=-0.029;exitDx=0;exitDy=0;exitPerimeter=0;entryX=0.75;entryY=1;entryDx=0;entryDy=0;" parent="1" source="27" target="6" edge="1">
                    <mxGeometry relative="1" as="geometry">
                        <mxPoint x="-220" y="400" as="sourcePoint"/>
                        <mxPoint x="360" y="620" as="targetPoint"/>
                        <Array as="points"/>
                    </mxGeometry>
                </mxCell>
                <mxCell id="31" value="" style="endArrow=none;html=1;rounded=0;entryX=0.857;entryY=0.668;entryDx=0;entryDy=0;entryPerimeter=0;" parent="1" source="24" target="54" edge="1">
                    <mxGeometry relative="1" as="geometry">
                        <mxPoint x="950.28" y="590" as="sourcePoint"/>
                        <mxPoint x="632.5800000000002" y="518.96" as="targetPoint"/>
                    </mxGeometry>
                </mxCell>
                <mxCell id="54" value="User_Activity" style="shape=rhombus;perimeter=rhombusPerimeter;whiteSpace=wrap;html=1;align=center;" parent="1" vertex="1">
                    <mxGeometry x="270" y="360" width="120" height="60" as="geometry"/>
                </mxCell>
                <mxCell id="55" value="" style="endArrow=none;html=1;rounded=0;exitX=0.426;exitY=1.038;exitDx=0;exitDy=0;exitPerimeter=0;" parent="1" source="3" target="54" edge="1">
                    <mxGeometry relative="1" as="geometry">
                        <mxPoint x="400" y="440" as="sourcePoint"/>
                        <mxPoint x="440" y="470" as="targetPoint"/>
                    </mxGeometry>
                </mxCell>
                <mxCell id="56" value="M" style="resizable=0;html=1;whiteSpace=wrap;align=right;verticalAlign=bottom;" parent="55" connectable="0" vertex="1">
                    <mxGeometry x="1" relative="1" as="geometry">
                        <mxPoint x="18" y="2" as="offset"/>
                    </mxGeometry>
                </mxCell>
                <mxCell id="57" value="" style="endArrow=none;html=1;rounded=0;entryX=0.5;entryY=1;entryDx=0;entryDy=0;" parent="1" source="6" target="54" edge="1">
                    <mxGeometry relative="1" as="geometry">
                        <mxPoint x="400" y="440" as="sourcePoint"/>
                        <mxPoint x="300" y="480" as="targetPoint"/>
                    </mxGeometry>
                </mxCell>
                <mxCell id="58" value="N" style="resizable=0;html=1;whiteSpace=wrap;align=right;verticalAlign=bottom;" parent="57" connectable="0" vertex="1">
                    <mxGeometry x="1" relative="1" as="geometry">
                        <mxPoint x="-6" y="18" as="offset"/>
                    </mxGeometry>
                </mxCell>
                <mxCell id="123" value="UserActivityID" style="ellipse;whiteSpace=wrap;html=1;align=center;" parent="1" vertex="1">
                    <mxGeometry x="199.86" y="300" width="100" height="40" as="geometry"/>
                </mxCell>
                <mxCell id="124" value="userID (FK till User)" style="ellipse;whiteSpace=wrap;html=1;align=center;" parent="1" vertex="1">
                    <mxGeometry x="360" y="300" width="100" height="40" as="geometry"/>
                </mxCell>
                <mxCell id="125" value="activityID (FK till Activity)" style="ellipse;whiteSpace=wrap;html=1;align=center;" parent="1" vertex="1">
                    <mxGeometry x="425" y="350" width="100" height="40" as="geometry"/>
                </mxCell>
                <mxCell id="127" value="Points" style="ellipse;whiteSpace=wrap;html=1;align=center;" parent="1" vertex="1">
                    <mxGeometry x="140.28" y="350" width="79.72" height="50" as="geometry"/>
                </mxCell>
                <mxCell id="128" value="" style="endArrow=none;html=1;rounded=0;entryX=0.086;entryY=0.431;entryDx=0;entryDy=0;entryPerimeter=0;" parent="1" source="127" target="54" edge="1">
                    <mxGeometry relative="1" as="geometry">
                        <mxPoint x="727" y="210" as="sourcePoint"/>
                        <mxPoint x="777" y="350" as="targetPoint"/>
                    </mxGeometry>
                </mxCell>
                <mxCell id="129" value="" style="endArrow=none;html=1;rounded=0;entryX=0;entryY=0;entryDx=0;entryDy=0;" parent="1" source="123" target="54" edge="1">
                    <mxGeometry relative="1" as="geometry">
                        <mxPoint x="270" y="323" as="sourcePoint"/>
                        <mxPoint x="321" y="379" as="targetPoint"/>
                    </mxGeometry>
                </mxCell>
                <mxCell id="130" value="" style="endArrow=none;html=1;rounded=0;exitX=0.284;exitY=0.923;exitDx=0;exitDy=0;exitPerimeter=0;entryX=0.624;entryY=0.135;entryDx=0;entryDy=0;entryPerimeter=0;" parent="1" source="124" target="54" edge="1">
                    <mxGeometry relative="1" as="geometry">
                        <mxPoint x="1014" y="212.69" as="sourcePoint"/>
                        <mxPoint x="1041.52" y="357.3099999999999" as="targetPoint"/>
                    </mxGeometry>
                </mxCell>
                <mxCell id="131" value="" style="endArrow=none;html=1;rounded=0;entryX=1;entryY=0;entryDx=0;entryDy=0;" parent="1" source="125" target="54" edge="1">
                    <mxGeometry relative="1" as="geometry">
                        <mxPoint x="399" y="227" as="sourcePoint"/>
                        <mxPoint x="355" y="373" as="targetPoint"/>
                    </mxGeometry>
                </mxCell>
                <mxCell id="135" value="Duration" style="ellipse;whiteSpace=wrap;html=1;align=center;" parent="1" vertex="1">
                    <mxGeometry x="170.14" y="410" width="79.72" height="50" as="geometry"/>
                </mxCell>
                <mxCell id="136" value="" style="endArrow=none;html=1;rounded=0;exitX=1;exitY=0.5;exitDx=0;exitDy=0;entryX=0;entryY=1;entryDx=0;entryDy=0;" parent="1" source="135" target="54" edge="1">
                    <mxGeometry relative="1" as="geometry">
                        <mxPoint x="231" y="286" as="sourcePoint"/>
                        <mxPoint x="321" y="380" as="targetPoint"/>
                    </mxGeometry>
                </mxCell>
                <mxCell id="139" value="&lt;div&gt;&lt;br&gt;&lt;/div&gt;&lt;div&gt;&lt;br&gt;&lt;/div&gt;" style="text;html=1;align=center;verticalAlign=middle;resizable=0;points=[];autosize=1;strokeColor=none;fillColor=none;" parent="1" vertex="1">
                    <mxGeometry x="200" y="323" width="20" height="40" as="geometry"/>
                </mxCell>
                <mxCell id="140" style="edgeStyle=none;html=1;exitX=0.5;exitY=1;exitDx=0;exitDy=0;entryX=0.578;entryY=1.039;entryDx=0;entryDy=0;entryPerimeter=0;" parent="1" source="24" target="24" edge="1">
                    <mxGeometry relative="1" as="geometry"/>
                </mxCell>
                <mxCell id="145" value="" style="endArrow=none;html=1;rounded=0;exitX=0.721;exitY=-0.041;exitDx=0;exitDy=0;exitPerimeter=0;entryX=0.25;entryY=1;entryDx=0;entryDy=0;" parent="1" source="25" target="6" edge="1">
                    <mxGeometry relative="1" as="geometry">
                        <mxPoint x="345" y="565" as="sourcePoint"/>
                        <mxPoint x="327" y="536" as="targetPoint"/>
                        <Array as="points"/>
                    </mxGeometry>
                </mxCell>
            </root>
        </mxGraphModel>
    </diagram>
</mxfile>